<?xml version="1.0" encoding="UTF-8"?>
<svg width="191px" height="49px" viewBox="0 0 191 49" version="1.1" xmlns="http://www.w3.org/2000/svg" xmlns:xlink="http://www.w3.org/1999/xlink">
    <title>Group 6</title>
    <defs>
        <linearGradient x1="50%" y1="0%" x2="50%" y2="100%" id="linearGradient-1">
            <stop stop-color="#212834" offset="0%"></stop>
            <stop stop-color="#10151A" offset="100%"></stop>
        </linearGradient>
    </defs>
    <g id="Style-4" stroke="none" stroke-width="1" fill="none" fill-rule="evenodd">
        <g id="Group-6" fill-rule="nonzero">
            <rect id="Rectangle-5569-Copy" fill="url(#linearGradient-1)" x="0" y="0" width="191" height="49" rx="4"></rect>
            <g id="BloomBoard-logo_Full" transform="translate(12, 8)" fill="#FFFFFF">
                <path d="M22.1899475,6.95767836 C24.5089272,4.50302297 26.0045011,2.53929867 25.7020255,2.24304716 C25.3995499,1.94679565 23.4166542,3.46191052 21.0052513,5.73035067 C20.896024,2.42079807 20.5431358,0 20.1230308,0 C19.7029257,0 19.3584396,2.35308343 19.2828207,5.57799274 C16.9554389,3.4280532 15.0817704,2.03990326 14.7456864,2.32769045 C14.4096024,2.61547763 15.8547637,4.56227328 18.1065266,6.95767836 C14.8633158,7.06771463 12.4771193,7.40628779 12.451913,7.80411125 C12.4267067,8.2019347 15.3926482,8.65054414 19.2492123,8.65054414 C19.2996249,12.5441354 19.6945236,15.5828295 20.1650413,15.5828295 C20.6355589,15.5828295 20.9464366,13.1535671 21.0472618,9.85247884 C23.483871,12.120919 25.4667667,13.5767836 25.7608402,13.2382104 C26.0549137,12.8996372 24.6097524,10.9782346 22.4,8.60822249 C25.6852213,8.50665054 28.0798199,8.15961306 28.0546136,7.7617896 C28.0294073,7.36396614 25.5087772,7.05078597 22.1899475,6.95767836 Z M20.1230308,17.2841596 C19.2828207,17.2841596 18.8459115,17.9951632 18.71988,18.9093108 L18.71988,24.6311971 C18.6710214,24.7290229 18.5819009,24.8002282 18.476219,24.8258767 L3.31882971,24.8258767 C3.1927982,24.8258767 3.1843961,24.7158404 3.1423856,24.5888755 L3.1423856,9.78476421 C3.14810787,9.67896038 3.21844386,9.58785863 3.31882971,9.55622733 L9.20030007,9.55622733 C10.0393447,9.51176639 10.7005717,8.81973734 10.7126782,7.97339782 C10.7126782,7.22007255 10.2505626,6.62756953 9.12468117,6.45828295 L1.78124531,6.45828295 C1.20150037,6.37363966 0,7.20314389 0,7.87182588 C0.0207681262,8.03196767 0.0207681262,8.19415083 0,8.35429262 L0,26.2394196 C0.0498096522,27.1459054 0.735831226,27.8868812 1.6300075,28 L19.8625656,28 C20.773404,27.8647362 21.4705554,27.1132595 21.5429857,26.1886336 L21.5429857,18.9093108 C21.5957136,18.0657428 20.9603179,17.3385268 20.1230308,17.2841596 Z M41.3047262,17.4619105 C42.7233606,16.838541 43.6289342,15.4149824 43.5984996,13.8561064 L43.5984996,13.8137848 C43.621498,12.8084598 43.232507,11.8379643 42.5230307,11.1305925 C41.3652582,10.1133881 39.854929,9.59911603 38.3219805,9.70012092 L32.5413353,9.70012092 C32.1619162,9.69322524 31.7959031,9.84144175 31.5267793,10.110964 C31.2576554,10.3804862 31.1083718,10.7483293 31.1128747,11.1305925 L31.1128747,24.4365175 C31.1083718,24.8187807 31.2576554,25.1866238 31.5267793,25.456146 C31.7959031,25.7256683 32.1619162,25.8738848 32.5413353,25.8669891 L38.5488372,25.8669891 C42.1197299,25.8669891 44.4807603,24.3264813 44.4807603,21.4316808 L44.4807603,21.3893591 C44.4891223,19.1970979 43.1783946,18.1136638 41.2963241,17.4619105 L41.3047262,17.4619105 Z M33.9024756,12.2224909 L37.9606902,12.2224909 C39.7671418,12.2224909 40.7753938,13.0012092 40.7753938,14.2793229 L40.7753938,14.3216445 C40.7753938,15.8029021 39.5654914,16.5139057 37.7506376,16.5139057 L33.8940735,16.5139057 L33.8940735,12.2224909 L33.9024756,12.2224909 Z M41.6660165,21.1608222 C41.6660165,22.6166868 40.4897224,23.3784764 38.5656414,23.3784764 L33.8940735,23.3784764 L33.8940735,18.9177751 L38.363991,18.9177751 C40.5821455,18.9177751 41.6660165,19.764208 41.6660165,21.0931076 L41.6660165,21.1608222 Z M48.4465116,8.92140266 C48.0826003,8.91913259 47.732941,9.06376282 47.4756119,9.32299779 C47.2182828,9.58223276 47.0747158,9.93448169 47.0769431,10.3010883 L47.0769431,24.5973398 C47.0769431,25.3686685 47.6976577,25.9939541 48.4633158,25.9939541 C49.2289739,25.9939541 49.8496624,25.3686685 49.8496624,24.5973398 L49.8496624,10.2756953 C49.8452326,9.90528148 49.6949057,9.55181481 49.431758,9.29306774 C49.1686102,9.03432067 48.8142015,8.8914926 48.4465116,8.8959057 L48.4465116,8.92140266 Z M58.83991,13.4498186 C57.138001,13.4134271 55.4931622,14.0685605 54.2760997,15.2675677 C53.0590372,16.4665749 52.3721669,18.1085594 52.3702926,19.8234583 L52.3702926,19.8657799 C52.377797,22.1882223 53.6146307,24.3302142 55.6148902,25.4848882 C57.6151498,26.6395622 60.0749483,26.6314958 62.0677034,25.4637274 C64.0604586,24.2959591 65.2834234,22.1459006 65.275919,19.8234583 L65.275919,19.7726723 C65.2879943,18.0616494 64.6093543,16.4191391 63.3957348,15.2220688 C62.1821154,14.0249984 60.5377205,13.376151 58.83991,13.4244256 L58.83991,13.4498186 Z M62.5032258,19.8657799 C62.5518865,20.8718912 62.1864001,21.853663 61.4930116,22.5794229 C60.7996232,23.3051828 59.8397547,23.7106413 58.83991,23.7001209 C57.8311033,23.6917115 56.8686863,23.2720588 56.1721436,22.536867 C55.4756009,21.8016752 55.1043244,20.8136317 55.1429857,19.7980653 L55.1429857,19.7472793 C55.0826946,18.7399567 55.4383235,17.7523171 56.1256696,17.0182059 C56.8130158,16.2840947 57.7709618,15.8687872 58.7726932,15.8706107 C59.7882279,15.8765801 60.7576663,16.2984418 61.4581261,17.0392122 C62.1585859,17.7799825 62.5297995,18.7759255 62.4864216,19.7980653 L62.4864216,19.8403869 L62.5032258,19.8657799 Z M73.4259565,13.4498186 C71.7240475,13.4134271 70.0792087,14.0685605 68.8621462,15.2675677 C67.6450837,16.4665749 66.9582134,18.1085594 66.9563391,19.8234583 L66.9563391,19.8657799 C66.96794,23.4559646 69.8663673,26.3569103 73.4301575,26.3452587 C76.9939478,26.3335367 79.8735662,23.413643 79.8619655,19.8234583 L79.8619655,19.7726723 C79.8737054,18.0691779 79.2007919,16.4333691 77.9963934,15.2375886 C76.7919949,14.0418081 75.1585874,13.3877986 73.467967,13.4244256 L73.4259565,13.4498186 Z M77.0892723,19.8657799 C77.1375226,20.864514 76.7776778,21.8395854 76.093507,22.5640049 C75.4093363,23.2884244 74.4605314,23.6989884 73.467967,23.7001209 C72.4591603,23.6917115 71.4967433,23.2720588 70.8002006,22.536867 C70.1036579,21.8016752 69.7323814,20.8136317 69.7710427,19.7980653 L69.7710427,19.7472793 C69.7130744,18.7376578 70.0717921,17.7487766 70.7622893,17.0146983 C71.4527866,16.2806201 72.4136883,15.8665936 73.4175544,15.8705876 C74.4330891,15.8765801 75.4025275,16.2984418 76.1029873,17.0392122 C76.8034471,17.7799825 77.1746607,18.7759255 77.1312828,19.7980653 L77.1312828,19.8403869 L77.0892723,19.8657799 Z M96.4141035,13.4498186 C94.8058286,13.4428392 93.2973349,14.2343319 92.3810952,15.5659008 C91.7010182,14.1930395 90.2811953,13.3534208 88.7597899,13.4244256 C87.2494002,13.4305073 85.8501287,14.2250288 85.0628657,15.5235792 L85.0628657,14.9480048 C85.0651186,14.5746637 84.9188959,14.2159562 84.6568398,13.9519593 C84.3947837,13.6879623 84.0387134,13.5406566 83.668117,13.5429262 C83.3011919,13.5451526 82.950302,13.6947176 82.6932186,13.9584717 C82.4361353,14.2222257 82.2940932,14.578383 82.2984717,14.9480048 L82.2984717,24.5973398 C82.2984717,25.3686685 82.9192632,25.9939541 83.6849212,25.9939541 C84.4505792,25.9939541 85.0712677,25.3686685 85.0712678,24.5973398 L85.0712678,18.9854897 C85.0712678,17.114873 86.1299325,15.9637243 87.6675168,15.9637243 C89.2051012,15.9637243 90.1209302,17.0217654 90.1209302,18.9177751 L90.1209302,24.5973398 C90.1209302,25.3686685 90.7416187,25.9939541 91.5072768,25.9939541 C92.2729349,25.9939541 92.8936234,25.3686685 92.8936234,24.5973398 L92.8936234,18.9854897 C92.8936234,17.0217654 93.9690922,15.9637243 95.4814703,15.9637243 C96.9938484,15.9637243 97.9348837,17.0048368 97.9348837,18.9431681 L97.9348837,24.5973398 C97.9348218,24.9699422 98.0834527,25.326927 98.3473449,25.587998 C98.6112372,25.849069 98.9682333,25.9923056 99.3380345,25.9854897 C99.7048267,25.9925365 100.058545,25.8482675 100.317159,25.5861398 C100.575773,25.3240122 100.716815,24.9667986 100.707577,24.5973398 L100.707577,18.0882709 C100.699175,15.1088271 99.1027757,13.4244256 96.4645161,13.4244256 L96.4141035,13.4498186 Z M114.058515,17.4873035 C115.475405,16.8631605 116.378045,15.4389958 116.343886,13.8814994 L116.343886,13.8391778 C116.370928,12.8331142 115.981313,11.8610599 115.268417,11.1559855 C114.111578,10.1371451 112.600558,9.62263766 111.067367,9.72551391 L105.286722,9.72551391 C104.908748,9.72092578 104.544925,9.87016196 104.277638,10.1394284 C104.010351,10.4086949 103.862212,10.7752128 103.866767,11.1559855 L103.866767,24.4365175 C103.859859,24.8179929 104.007242,25.1858961 104.275047,25.4556848 C104.542852,25.7254735 104.908051,25.8739479 105.286722,25.8669891 L111.294224,25.8669891 C114.873518,25.8669891 117.234509,24.3264813 117.234509,21.4316808 L117.234509,21.3893591 C117.326932,19.1970979 116.016204,18.1136638 114.142536,17.4619105 L114.058515,17.4873035 Z M106.647862,12.2478839 L110.706076,12.2478839 C112.52093,12.2478839 113.529182,13.0266022 113.529182,14.3047158 L113.529182,14.3470375 C113.529182,15.828295 112.310878,16.5392987 110.504426,16.5392987 L106.647862,16.5392987 L106.647862,12.2478839 Z M114.503826,21.1608222 C114.503826,22.6166868 113.335934,23.3784764 111.411853,23.3784764 L106.731883,23.3784764 L106.731883,18.9177751 L111.2018,18.9177751 C113.428357,18.9177751 114.503826,19.764208 114.503826,21.0931076 L114.503826,21.0931076 L114.503826,21.1608222 Z M125.56099,13.4498186 C123.858414,13.411086 122.212232,14.0654545 120.994656,15.2649676 C119.77708,16.4644807 119.090939,18.1078348 119.091373,19.8234583 L119.091373,19.8657799 C119.102974,23.4559647 122.001401,26.3569105 125.565191,26.3452589 C129.128982,26.3335369 132.0086,23.4136431 131.996999,19.8234583 L131.996999,19.7726723 C132.009075,18.0616494 131.330435,16.4191391 130.116815,15.2220688 C128.903196,14.0249984 127.258801,13.376151 125.56099,13.4244256 L125.56099,13.4498186 Z M129.224306,19.8657799 C129.272967,20.8718912 128.90748,21.853663 128.214092,22.5794229 C127.520703,23.3051828 126.560835,23.7106413 125.56099,23.7001209 C124.552184,23.6917115 123.589767,23.2720588 122.893224,22.536867 C122.196681,21.8016752 121.825405,20.8136317 121.864066,19.7980653 L121.864066,19.7472793 C121.803579,18.7370076 122.161453,17.7466672 122.852496,17.0120091 C123.543538,16.2773511 124.505932,15.864095 125.510578,15.8705407 C126.526112,15.8765801 127.495551,16.2984418 128.196011,17.0392122 C128.89647,17.7799825 129.267684,18.7759255 129.224306,19.7980653 L129.224306,19.8657799 Z M139.197599,13.5429262 C137.864824,13.5256928 136.541216,13.7670862 135.299025,14.2539299 C134.848977,14.4372455 134.551265,14.8737923 134.542836,15.362757 C134.545012,15.6732855 134.67073,15.9699606 134.891833,16.1863379 C135.112937,16.4027151 135.410951,16.5207135 135.71913,16.5139057 C135.864629,16.5144083 136.009279,16.4915502 136.147637,16.4461911 C137.005709,16.1162497 137.917924,15.952558 138.836309,15.9637243 C140.777194,15.9637243 141.835859,16.8863362 141.835859,18.6215236 L141.835859,18.9177751 C140.786414,18.5723261 139.688257,18.4008083 138.584246,18.4099154 C135.618305,18.4099154 133.542986,19.7049577 133.542986,22.337364 L133.542986,22.3881499 C133.542986,24.834341 135.55949,26.146312 137.828057,26.146312 C139.344174,26.2016924 140.799937,25.5450305 141.768642,24.3688029 L141.768642,24.834341 C141.790054,25.1722764 141.945461,25.4873419 142.199891,25.7086312 C142.45432,25.9299206 142.786394,26.0388421 143.12138,26.0108827 C143.478484,26.0200593 143.824014,25.8829433 144.078971,25.6308843 C144.333928,25.3788252 144.47651,25.0333761 144.474118,24.6735187 L144.474118,18.6215236 C144.565728,17.2424672 144.095448,15.8853649 143.171793,14.8633615 C142.075985,13.904928 140.644391,13.4292772 139.197599,13.5429262 L139.197599,13.5429262 Z M141.886272,21.5078597 C141.886272,23.0568319 140.483121,24.114873 138.651463,24.114873 C137.315529,24.114873 136.290473,23.4461911 136.290473,22.2696493 L136.290473,22.2273277 C136.290473,20.949214 137.340735,20.1874244 139.130383,20.1874244 C140.071123,20.1794432 141.005296,20.3458558 141.886272,20.6783555 L141.886272,21.5247884 L141.886272,21.5078597 Z M153.229107,13.5429262 C152.019205,13.5429262 150.826106,14.694075 150.179145,16.2176542 L150.179145,14.9480048 C150.181398,14.5746637 150.035175,14.2159562 149.773119,13.9519593 C149.511063,13.6879623 149.154992,13.5406566 148.784396,13.5429262 C148.414533,13.5428639 148.060173,13.6925956 147.801021,13.9584423 C147.541869,14.224289 147.399686,14.5839291 147.406452,14.9564692 L147.406452,24.6058041 C147.404198,24.9746556 147.548651,25.3290573 147.807555,25.5898796 C148.06646,25.8507019 148.418256,25.996224 148.784396,25.9939802 C149.15208,25.9962057 149.505592,25.851218 149.767159,25.5908879 C150.028727,25.3305579 150.176923,24.9762114 150.179145,24.6058041 L150.179145,21 C150.179145,18.1136638 151.531883,16.5816203 153.539985,16.2430472 C154.192549,16.1405 154.665596,15.5620921 154.64066,14.8972189 C154.659647,14.5204035 154.514567,14.1539826 154.243358,13.8937754 C153.972149,13.6335681 153.601782,13.5054508 153.229107,13.5429262 L153.229107,13.5429262 Z M166.596849,8.92140266 C166.232938,8.91913259 165.883279,9.06376282 165.625949,9.32299779 C165.36862,9.58223276 165.225053,9.93448169 165.227307,10.3010883 L165.227307,15.5912938 C164.286564,14.2316984 162.738471,13.4297302 161.093473,13.4498186 C158.211553,13.4498186 155.48087,15.7351874 155.48087,19.7726723 L155.48087,19.8234583 C155.48087,23.8609432 158.253563,26.1463523 161.093473,26.1463523 C162.770303,26.1531509 164.332425,25.2895398 165.227307,23.8609432 L165.227307,24.6227328 C165.227307,25.3940615 165.847995,26.019347 166.613653,26.019347 C167.379311,26.019347 168,25.3940615 168,24.6227328 L168,10.2756953 C168,9.9038375 167.851216,9.5476789 167.587062,9.287942 C167.322907,9.02820509 166.965862,8.88688431 166.596849,8.89600967 L166.596849,8.92140266 Z M165.269317,19.8234583 C165.321799,20.808746 164.979529,21.7740274 164.319265,22.5028327 C163.659001,23.231638 162.735996,23.6629775 161.757239,23.7001209 C160.77487,23.6682969 159.848004,23.2337198 159.191283,22.4970272 C158.534562,21.7603346 158.204947,20.7854254 158.27877,19.7980653 L158.27877,19.7472793 C158.27877,17.3264813 159.858365,15.8452237 161.757239,15.8452237 C162.742246,15.8775051 163.672111,16.3109793 164.334103,17.0464777 C164.996094,17.7819761 165.333568,18.7565641 165.269317,19.7472793 L165.269317,19.8234583 Z" id="Shape"></path>
            </g>
        </g>
    </g>
</svg>