<svg id="Layer_1" data-name="Layer 1" xmlns="http://www.w3.org/2000/svg" viewBox="0 0 200 34"><defs><style>.cls-1{fill:#00a3dc;}</style></defs><title>bloomboard-full-00a3dc</title><g id="Examples"><g id="Branding-Examples"><g id="branding_bloomboard-full" data-name="branding/bloomboard-full"><path class="cls-1" d="M26.46,8.22C29.22,5.32,31,3,30.64,2.65s-2.72,1.44-5.59,4.12C24.92,2.86,24.5,0,24,0S23.09,2.78,23,6.59c-2.77-2.54-5-4.18-5.4-3.84s1.32,2.64,4,5.47c-3.86.13-6.7.53-6.73,1s3.5,1,8.09,1c.06,4.6.53,8.19,1.09,8.19s.93-2.87,1.05-6.77c2.9,2.68,5.26,4.4,5.61,4s-1.37-2.67-4-5.47c3.91-.12,6.76-.53,6.73-1S30.41,8.33,26.46,8.22ZM24,20.42c-1,0-1.52.84-1.67,1.92V29.1a.44.44,0,0,1-.29.23H4c-.15,0-.16-.13-.21-.28V11.56A.3.3,0,0,1,4,11.29h7A1.9,1.9,0,0,0,12.8,9.42c0-.89-.55-1.59-1.89-1.79H2.17C1.48,7.53.05,8.51.05,9.3a2.2,2.2,0,0,1,0,.57V31a2.22,2.22,0,0,0,1.94,2.08H23.69a2.35,2.35,0,0,0,2-2.14V22.34A1.81,1.81,0,0,0,24,20.42Zm25.21.21a4.55,4.55,0,0,0,2.73-4.26v-.05a4.32,4.32,0,0,0-1.28-3.17,6.92,6.92,0,0,0-5-1.69H38.78a1.67,1.67,0,0,0-1.7,1.69V28.87a1.67,1.67,0,0,0,1.7,1.69h7.15c4.25,0,7.06-1.82,7.06-5.24v-.05C53,22.68,51.44,21.4,49.2,20.63Zm-8.81-6.19h4.83c2.15,0,3.35.92,3.35,2.43v.05c0,1.75-1.44,2.59-3.6,2.59H40.39V14.44ZM49.64,25c0,1.72-1.4,2.62-3.69,2.62H40.39V22.35h5.32c2.64,0,3.93,1,3.93,2.57Zm8.07-14.46a1.62,1.62,0,0,0-1.63,1.63V29.06a1.65,1.65,0,0,0,3.3,0V12.14A1.65,1.65,0,0,0,57.71,10.51Zm12.37,5.35a7.54,7.54,0,0,0-7.7,7.53v.05a7.68,7.68,0,0,0,15.36-.05v-.06A7.45,7.45,0,0,0,70.08,15.86Zm4.36,7.58A4.32,4.32,0,0,1,70.08,28a4.44,4.44,0,0,1-4.4-4.61v-.06A4.32,4.32,0,0,1,70,18.75a4.45,4.45,0,0,1,4.42,4.64v.05Zm13-7.58a7.54,7.54,0,0,0-7.7,7.53v.05a7.68,7.68,0,0,0,15.36-.05v-.06A7.45,7.45,0,0,0,87.49,15.86Zm4.36,7.58A4.32,4.32,0,0,1,87.49,28a4.44,4.44,0,0,1-4.4-4.61v-.06a4.33,4.33,0,0,1,4.34-4.58,4.45,4.45,0,0,1,4.42,4.64v.05Zm23-7.58A5.81,5.81,0,0,0,110,18.39a4.58,4.58,0,0,0-4.31-2.53,5.18,5.18,0,0,0-4.4,2.48v-.68A1.65,1.65,0,0,0,99.63,16,1.64,1.64,0,0,0,98,17.66v11.4a1.65,1.65,0,0,0,3.3,0V22.43c0-2.21,1.26-3.57,3.09-3.57s2.92,1.25,2.92,3.49v6.71a1.65,1.65,0,0,0,3.3,0V22.43c0-2.32,1.28-3.57,3.08-3.57s2.92,1.23,2.92,3.52v6.68a1.64,1.64,0,0,0,1.67,1.64,1.6,1.6,0,0,0,1.63-1.64V21.37C119.9,17.85,118,15.86,114.86,15.86Zm21,4.77a4.54,4.54,0,0,0,2.72-4.26v-.05a4.28,4.28,0,0,0-1.28-3.17,6.9,6.9,0,0,0-5-1.69h-6.88a1.67,1.67,0,0,0-1.69,1.69V28.87a1.66,1.66,0,0,0,1.69,1.69h7.15c4.26,0,7.07-1.82,7.07-5.24v-.05C139.69,22.68,138.13,21.4,135.9,20.63Zm-8.82-6.19h4.83c2.16,0,3.36.92,3.36,2.43v.05c0,1.75-1.45,2.59-3.6,2.59h-4.59ZM136.33,25c0,1.72-1.39,2.62-3.68,2.62h-5.57V22.35h5.32c2.65,0,3.93,1,3.93,2.57v0Zm13.16-9.11a7.53,7.53,0,0,0-7.7,7.53v.05a7.68,7.68,0,0,0,15.36-.05v-.06A7.45,7.45,0,0,0,149.49,15.86Zm4.36,7.58A4.32,4.32,0,0,1,149.49,28a4.44,4.44,0,0,1-4.4-4.61v-.06a4.32,4.32,0,0,1,4.34-4.58,4.45,4.45,0,0,1,4.42,4.64ZM165.72,16a12.36,12.36,0,0,0-4.64.84,1.44,1.44,0,0,0-.9,1.31,1.37,1.37,0,0,0,1.4,1.36,1.63,1.63,0,0,0,.51-.08,8.68,8.68,0,0,1,3.2-.57c2.31,0,3.57,1.09,3.57,3.14v.35a12.14,12.14,0,0,0-3.87-.6c-3.53,0-6,1.53-6,4.64v.06c0,2.89,2.4,4.44,5.1,4.44a5.82,5.82,0,0,0,4.69-2.1v.55a1.49,1.49,0,0,0,1.61,1.39,1.57,1.57,0,0,0,1.61-1.58V22a6,6,0,0,0-1.55-4.44A6.45,6.45,0,0,0,165.72,16Zm3.2,9.41c0,1.83-1.67,3.08-3.85,3.08-1.59,0-2.81-.79-2.81-2.18v-.05c0-1.51,1.25-2.41,3.38-2.41a9.13,9.13,0,0,1,3.28.58v1ZM182.42,16c-1.44,0-2.86,1.36-3.63,3.16V17.66A1.65,1.65,0,0,0,177.13,16a1.64,1.64,0,0,0-1.64,1.67v11.4a1.63,1.63,0,0,0,1.64,1.64,1.65,1.65,0,0,0,1.66-1.64V24.81c0-3.41,1.61-5.22,4-5.62a1.55,1.55,0,0,0,1.31-1.59A1.53,1.53,0,0,0,182.42,16Zm15.91-5.46a1.62,1.62,0,0,0-1.63,1.63v6.25a5.91,5.91,0,0,0-4.92-2.53c-3.43,0-6.68,2.7-6.68,7.47v.06c0,4.77,3.3,7.47,6.68,7.47a5.79,5.79,0,0,0,4.92-2.7v.9a1.65,1.65,0,0,0,3.3,0V12.14A1.63,1.63,0,0,0,198.33,10.51Zm-1.58,12.88A4.35,4.35,0,0,1,192.57,28a4.29,4.29,0,0,1-4.14-4.61v-.06c0-2.86,1.88-4.61,4.14-4.61a4.33,4.33,0,0,1,4.18,4.61Z"/></g></g></g></svg>