<?xml version="1.0" encoding="UTF-8"?>
<svg width="365px" height="91px" viewBox="0 0 365 91" version="1.1" xmlns="http://www.w3.org/2000/svg" xmlns:xlink="http://www.w3.org/1999/xlink">
    <title>Canvas_Horizontal_ByInstructure_Color_RGB</title>
    <g id="Page-1" stroke="none" stroke-width="1" fill="none" fill-rule="evenodd">
        <g id="Canvas_Horizontal_ByInstructure_Color_RGB" transform="translate(-0.0038, -0.0012)" fill="#E72429" fill-rule="nonzero">
            <path d="M13.143847,45.2012165 C13.1479633,38.5874495 8.21802091,33.0096208 1.65384439,32.2012165 C-0.551281463,40.7276164 -0.551281463,49.6748166 1.65384439,58.2012165 C8.21802091,57.3928122 13.1479633,51.8149835 13.143847,45.2012165" id="Path"></path>
            <path d="M20.7538444,41.1012165 C19.0905956,41.1012165 17.5913117,42.1036762 16.9557522,43.640706 C16.3201927,45.1777358 16.6736635,46.9463019 17.8511897,48.1209631 C19.0287158,49.2956242 20.7981378,49.6447857 22.3336147,49.0054838 C23.8690917,48.3661818 24.8678912,46.8644604 24.8638566,45.2012165 C24.858331,42.9352324 23.0198352,41.1012165 20.7538444,41.1012165" id="Path"></path>
            <path d="M77.4338418,45.2012165 C77.4297254,51.8149835 82.3596679,57.3928122 88.9238444,58.2012165 C91.1289702,49.6748166 91.1289702,40.7276164 88.9238444,32.2012165 C82.3596679,33.0096208 77.4297254,38.5874495 77.4338418,45.2012165" id="Path"></path>
            <path d="M69.8238444,41.1012165 C68.1605956,41.1012165 66.6613117,42.1036762 66.0257522,43.640706 C65.3901927,45.1777358 65.7436635,46.9463019 66.9211897,48.1209631 C68.0987158,49.2956242 69.8681378,49.6447857 71.4036147,49.0054838 C72.9390917,48.3661818 73.9378912,46.8644604 73.9338566,45.2012165 C73.928331,42.9352324 72.0898352,41.1012165 69.8238444,41.1012165" id="Path"></path>
            <path d="M45.2038444,77.4712165 C38.5820848,77.4790922 33.0074405,82.4271791 32.2138444,89.0012165 C40.7421772,91.1910961 49.6855115,91.1910961 58.2138444,89.0012165 C57.4012151,82.4392661 51.8259212,77.511564 45.2138444,77.5112165" id="Path"></path>
            <path d="M45.2038444,65.7512043 C42.9339541,65.7512043 41.0938444,67.5913262 41.0938444,69.8612165 C41.0938444,72.1311068 42.9339541,73.9712165 45.2038444,73.9712165 C47.4737347,73.9712165 49.3138566,72.1311068 49.3138566,69.8612165 C49.3165083,68.7703623 48.8843471,67.7234192 48.1129944,66.9520665 C47.3416417,66.1807137 46.2946986,65.7485526 45.2038444,65.7512043" id="Path"></path>
            <path d="M45.2038444,13.1412165 C51.8159212,13.140869 57.3912151,8.21316694 58.2038444,1.6512165 C49.6769991,-0.5504055 40.7306897,-0.5504055 32.2038444,1.6512165 C33.0164737,8.21316694 38.5917676,13.140869 45.2038444,13.1412165" id="Path"></path>
            <path d="M45.2038444,16.6412043 C42.9339541,16.6412043 41.0938444,18.4813262 41.0938444,20.7512165 C41.0938444,23.0211068 42.9339541,24.8612165 45.2038444,24.8612165 C47.4737347,24.8612165 49.3138566,23.0211068 49.3138566,20.7512165 C49.3165083,19.6603623 48.8843471,18.6134192 48.1129944,17.8420665 C47.3416417,17.0707137 46.2946986,16.6385526 45.2038444,16.6412043" id="Path"></path>
            <path d="M68.0038444,68.0012165 C63.3408886,72.6765702 62.8865598,80.091559 66.9438444,85.3012165 C74.5118319,80.8170364 80.8185429,74.4862408 85.2738444,66.9012165 C80.0584113,62.8768412 72.666543,63.3476608 68.0038444,68.0012165" id="Path"></path>
            <path d="M59.6938444,59.6912165 C58.0974634,61.2940731 58.1009623,63.887031 59.7016633,65.4855734 C61.3023642,67.0841158 63.8953245,67.0841158 65.4960255,65.4855734 C67.0967264,63.887031 67.1002254,61.2940731 65.5038444,59.6912165 C64.7357936,58.9162498 63.6899335,58.4802919 62.5988444,58.4802919 C61.5077552,58.4802919 60.4618952,58.9162498 59.6938444,59.6912165" id="Path"></path>
            <path d="M22.5038444,22.5012165 C27.1684032,17.8318105 27.6270788,10.4201273 23.5738444,5.2112165 C15.996124,9.67889774 9.67565114,15.99593 5.20384439,23.5712165 C10.4145509,27.630403 17.8330574,27.1715705 22.5038444,22.5012165" id="Path"></path>
            <path d="M25.0038444,25.0012165 C23.8276838,26.1763992 23.475423,27.9444516 24.1113725,29.480673 C24.7473221,31.0168945 26.2461935,32.0186337 27.9088444,32.0186337 C29.5714953,32.0186337 31.0703667,31.0168945 31.7063162,29.480673 C32.3422658,27.9444516 31.990005,26.1763992 30.8138444,25.0012165 C29.2067968,23.403265 26.610892,23.403265 25.0038444,25.0012165" id="Path"></path>
            <path d="M68.0038444,22.4612165 C72.6752015,27.1214431 80.0835315,27.5799112 85.2938444,23.5312165 C80.8122283,15.9473543 74.4774366,9.62632642 66.8838444,5.1612165 C62.8378501,10.384205 63.3181754,17.8035149 68.0038444,22.4612165" id="Path"></path>
            <path d="M65.4738444,30.7512165 C66.650005,29.5760338 67.0022658,27.8079814 66.3663162,26.27176 C65.7303667,24.7355385 64.2314953,23.7337993 62.5688444,23.7337993 C60.9061935,23.7337993 59.4073221,24.7355385 58.7713725,26.27176 C58.135423,27.8079814 58.4876838,29.5760338 59.6638444,30.7512165 C61.270892,32.349168 63.8667968,32.349168 65.4738444,30.7512165" id="Path"></path>
            <path d="M22.4838444,67.9212165 C17.8091522,63.2595322 10.3973581,62.8011149 5.18384439,66.8512165 C9.65431306,74.4301641 15.9748968,80.7507478 23.5538444,85.2212165 C27.603946,80.0077028 27.1455287,72.5959087 22.4838444,67.9212165" id="Path"></path>
            <path d="M25.0038444,59.6412165 C23.4074634,61.2440731 23.4109623,63.837031 25.0116633,65.4355734 C26.6123642,67.0341158 29.2053245,67.0341158 30.8060255,65.4355734 C32.4067264,63.837031 32.4102254,61.2440731 30.8138444,59.6412165 C30.0444736,58.8687248 28.999108,58.4344802 27.9088444,58.4344802 C26.8185808,58.4344802 25.7732152,58.8687248 25.0038444,59.6412165" id="Path"></path>
            <path d="M150.623844,64.3712165 C150.623844,73.2512165 144.863844,76.5412165 136.153844,76.5412165 L136.003844,76.5412165 C127.293844,76.5412165 121.533844,73.3312165 121.533844,64.3712165 L121.533844,29.8312165 C121.533844,21.2812165 127.293844,17.6612165 136.003844,17.6612165 L136.173844,17.6612165 C144.883844,17.6612165 150.643844,21.2812165 150.643844,29.8312165 L150.643844,36.6512165 L141.103844,36.6512165 L141.103844,31.3212165 C141.103844,27.3212165 139.103844,26.0512165 136.103844,26.0512165 C133.103844,26.0512165 131.103844,27.2912165 131.103844,31.3212165 L131.103844,62.8912165 C131.103844,66.8912165 133.103844,68.1512165 136.103844,68.1512165 C139.103844,68.1512165 141.103844,66.9212165 141.103844,62.8912165 L141.103844,56.1612165 L150.643844,56.1612165 L150.623844,64.3712165 Z" id="Path"></path>
            <path d="M184.423844,63.0612165 L173.903844,63.0612165 L171.843844,75.8812165 L162.633844,75.8812165 L173.323844,18.3212165 L185.323844,18.3212165 L196.173844,75.8812165 L186.473844,75.8812165 L184.423844,63.0612165 Z M183.193844,55.1612165 L179.193844,29.5912165 L175.193844,55.1612165 L183.193844,55.1612165 Z" id="Shape"></path>
            <polygon id="Path" points="209.183844 75.8812165 209.183844 18.3212165 218.723844 18.3212165 230.813844 53.9312165 230.813844 18.3212165 239.523844 18.3212165 239.523844 75.8812165 230.483844 75.8812165 217.903844 38.4712165 217.903844 75.8812165"></polygon>
            <polygon id="Path" points="273.903844 75.8812165 263.383844 75.8812165 252.533844 18.3212165 262.233844 18.3212165 268.893844 61.0012165 275.553844 18.3212165 284.763844 18.3212165"></polygon>
            <path d="M313.223844,63.0612165 L302.693844,63.0612165 L300.643844,75.8812165 L291.433844,75.8812165 L302.123844,18.3212165 L314.123844,18.3212165 L325.003844,75.8812165 L315.293844,75.8812165 L313.223844,63.0612165 Z M312.003844,55.1612165 L308.003844,29.5912165 L304.003844,55.1612165 L312.003844,55.1612165 Z" id="Shape"></path>
            <path d="M355.003844,35.1712165 L355.003844,30.8212165 C355.003844,27.2012165 352.943844,25.8912165 350.153844,25.8912165 C347.363844,25.8912165 345.303844,27.2012165 345.303844,30.8212165 L345.303844,34.8212165 C345.303844,37.8212165 346.303844,39.0912165 349.003844,40.6612165 L355.743844,44.4412165 C361.253844,47.5612165 364.543844,50.1112165 364.543844,56.2812165 L364.543844,64.5912165 C364.543844,73.4712165 359.033844,76.5912165 350.313844,76.5912165 L350.153844,76.5912165 C341.433844,76.5912165 335.923844,73.5912165 335.923844,64.5912165 L335.923844,58.4912165 L345.303844,58.4912165 L345.303844,63.2712165 C345.303844,66.8112165 347.353844,68.3712165 350.233844,68.3712165 C353.113844,68.3712165 355.163844,66.8112165 355.163844,63.2712165 L355.163844,58.7012165 C355.163844,55.7012165 354.263844,54.2612165 351.383844,52.7012165 L344.723844,48.9212165 C339.133844,45.7112165 335.923844,43.0812165 335.923844,37.0812165 L335.923844,29.5112165 C335.923844,20.9512165 342.173844,17.6612165 350.073844,17.6612165 L350.233844,17.6612165 C358.123844,17.6612165 364.373844,20.9512165 364.373844,29.5112165 L364.373844,35.1712165 L355.003844,35.1712165 Z" id="Path"></path>
        </g>
    </g>
</svg>